<?xml version="1.0" encoding="UTF-8"?>
<svg width="111px" height="26px" viewBox="0 0 111 26" version="1.1" xmlns="http://www.w3.org/2000/svg" xmlns:xlink="http://www.w3.org/1999/xlink">
    <!-- Generator: Sketch 52.2 (67145) - http://www.bohemiancoding.com/sketch -->
    <title>nimiq</title>
    <desc>Created with Sketch.</desc>
    <defs>
        <radialGradient cx="75.2750764%" cy="98.7499981%" fx="75.2750764%" fy="98.7499981%" r="115.372285%" gradientTransform="translate(0.752751,0.987500),scale(0.866667,1.000000),translate(-0.752751,-0.987500)" id="radialGradient-1">
            <stop stop-color="#EC991C" offset="0%"></stop>
            <stop stop-color="#E9B213" offset="100%"></stop>
        </radialGradient>
    </defs>
    <g id="design" stroke="none" stroke-width="1" fill="none" fill-rule="evenodd">
        <g id="Pool-stats" transform="translate(-1008.000000, -121.000000)">
            <g id="contents" transform="translate(444.000000, 115.000000)">
                <g id="title" transform="translate(11.000000, 0.000000)">
                    <g id="nimiq" transform="translate(553.000000, 6.000000)">
                        <path d="M29.6650993,11.78125 L23.4157672,1.21875046 C22.9689467,0.464101529 22.1429733,-0.0005581856 21.2493321,5.03242276e-07 L8.75066791,5.03242276e-07 C7.85702675,-0.0005581856 7.03105328,0.464101529 6.58423279,1.21875046 L0.334900697,11.78125 C-0.111633566,12.5354151 -0.111633566,13.4645849 0.334900697,14.21875 L6.58423279,24.7812495 C7.03105328,25.5358985 7.85702675,26.0005582 8.75066791,25.9999995 L21.2493321,25.9999995 C22.1429733,26.0005582 22.9689467,25.5358985 23.4157672,24.7812495 L29.6650993,14.21875 C30.1116336,13.4645849 30.1116336,12.5354151 29.6650993,11.78125 Z" id="Path" fill="url(#radialGradient-1)"></path>
                        <path d="M51.438174,5.18474567 L54.098885,5.18474567 L54.098885,20.7100996 L52.0521842,20.7100996 L43.660711,9.88320804 L43.660711,20.7100996 L41,20.7100996 L41,5.18474567 L43.0467008,5.18474567 L51.438174,16.0116372 L51.438174,5.18474567 Z M59.4203071,20.7100996 L59.4203071,5.18474567 L62.2856882,5.18474567 L62.2856882,20.7100996 L59.4203071,20.7100996 Z M80.5013251,5.18474567 L82.752696,5.18474567 L82.752696,20.7100996 L80.296655,20.7100996 L80.296655,11.1088939 L76.0804514,20.7100996 L74.2793547,20.7100996 L70.0631511,11.1088939 L70.0631511,20.7100996 L67.6071102,20.7100996 L67.6071102,5.18474567 L69.8584811,5.18474567 L75.1799031,17.3598916 L80.5013251,5.18474567 Z M88.074118,20.7100996 L88.074118,5.18474567 L90.9394991,5.18474567 L90.9394991,20.7100996 L88.074118,20.7100996 Z M110.096618,17.1556107 C109.411415,18.5476221 108.249843,19.6490174 106.821897,20.2606814 C107.16181,20.866594 107.574167,21.429077 108.049918,21.9357854 C108.557293,22.4922121 109.104522,23.0110911 109.687278,23.4883208 L107.722446,25 C107.001963,24.476298 106.342865,23.8732735 105.757613,23.2023274 C105.12806,22.4882239 104.578982,21.7072752 104.120252,20.8735244 L103.424374,20.8735244 C102.014455,20.9194692 100.617128,20.5954547 99.3719064,19.9338319 C98.2365419,19.2943985 97.3228584,18.3254553 96.7521294,17.1556107 C96.1368171,15.8389537 95.8289018,14.4000906 95.851581,12.9474226 C95.8108102,11.4930464 96.119605,10.0500736 96.7521294,8.73923459 C97.3379816,7.5665039 98.2654869,6.59803532 99.4128404,5.96101337 C101.947556,4.67966221 104.942126,4.67966221 107.476841,5.96101337 C108.612206,6.60044675 109.525889,7.56938993 110.096618,8.73923459 C110.724663,10.0515992 111.033225,11.4934805 110.997167,12.9474226 C111.022725,14.40037 110.714673,15.8398726 110.096618,17.1556107 Z M99.9449826,17.1556107 C100.849584,18.110162 102.107959,18.650988 103.424374,18.650988 C104.740788,18.650988 105.999163,18.110162 106.903765,17.1556107 C107.722446,16.175062 108.131786,14.7859514 108.131786,12.9474226 C108.131786,11.1088939 107.722446,9.67892706 106.903765,8.6983784 C105.993244,7.75458384 104.737078,7.22132152 103.424374,7.22132152 C102.111669,7.22132152 100.855504,7.75458384 99.9449826,8.6983784 C99.1263023,9.67892706 98.7169621,11.1088939 98.7169621,12.9474226 C98.7169621,14.7859514 99.1263023,16.2159182 99.9449826,17.1964669 L99.9449826,17.1556107 Z" id="Shape" fill="#4D4D4D" fill-rule="nonzero"></path>
                    </g>
                </g>
            </g>
        </g>
    </g>
</svg>